# xmcd
#
# Track frame offsets: 
#        150
#        14486
#        31491
#        43716
#        56558
#        65277
#        76987
#        92732
#        105925
#        117725
#        130495
#        140894
#        151972
#        165009
#        174995
#        188779
#        200673
#        213715
#        227746
#        238569
#
# Disc length: 3350 seconds
#
# Revision: 0
# Processed by: cddbd v1.5.2PL0 Copyright (c) Steve Scherf et al.
# Submitted via: ExactAudioCopy v0.99pb5
#
DISCID=150d1414
DTITLE=Alexis Korner - Easy Rider - Disc 1
DYEAR=2011
DGENRE=Blues
TTITLE0=Leaving Blues
TTITLE1=Rotten Break
TTITLE2=Alberta
TTITLE3=Roundhouse Stomp
TTITLE4=Skip To My Lou
TTITLE5=Good Morning
TTITLE6=Boll Weevil
TTITLE7=Ella Speed
TTITLE8=Ain't Gonna Worry No More
TTITLE9=County Jail
TTITLE10=Kid Man
TTITLE11=Easy Rider
TTITLE12=Sail On
TTITLE13=National Defence Blues
TTITLE14=Go Down Sunshine
TTITLE15=Death Letter
TTITLE16=Kansas City Blues
TTITLE17=Casey Jones
TTITLE18=This Train
TTITLE19=Rock Me
EXTD=
EXTT0=
EXTT1=
EXTT2=
EXTT3=
EXTT4=
EXTT5=
EXTT6=
EXTT7=
EXTT8=
EXTT9=
EXTT10=
EXTT11=
EXTT12=
EXTT13=
EXTT14=
EXTT15=
EXTT16=
EXTT17=
EXTT18=
EXTT19=
PLAYORDER=
